<svg width="125" height="65" viewBox="0 0 125 65" fill="none" xmlns="http://www.w3.org/2000/svg">
<path d="M93.1012 52.1393C92.5857 58.245 85.0865 63.1198 75.5999 63.4769C66.4758 63.8205 57.0704 64 47.4597 64C37.8489 64 28.4434 63.8205 19.3193 63.4769C9.83271 63.1198 2.33344 58.245 1.81801 52.1393C1.28101 45.7782 1 39.213 1 32.5001C1 25.7871 1.28102 19.2219 1.81804 12.8607C2.33348 6.75504 9.83274 1.88024 19.3193 1.52306C28.4435 1.17953 37.8489 1 47.4597 1C57.0704 1 66.4758 1.17953 75.5999 1.52305C85.0864 1.88022 92.5857 6.75503 93.1011 12.8607C93.2709 14.8711 93.415 16.9019 93.5328 18.9514L124 10.2383V54.8038L93.5304 46.09C93.4131 48.1254 93.2697 50.1424 93.1012 52.1393Z" fill="#D7E0FF" stroke="#4147D5" stroke-width="1.5" stroke-linejoin="round"/>
</svg>
