<svg width="112" height="100" viewBox="0 0 112 100" fill="none" xmlns="http://www.w3.org/2000/svg">
<g id="logout 1" clip-path="url(#clip0_656_10)">
<g id="Clip path group">
<mask id="mask0_656_10" style="mask-type:luminance" maskUnits="userSpaceOnUse" x="0" y="0" width="112" height="100">
<g id="clip0_1552_20922">
<path id="Vector" d="M112 0H0V100H112V0Z" fill="white"/>
</g>
</mask>
<g mask="url(#mask0_656_10)">
<rect id="Rectangle 1" x="87" y="100" width="87" height="100" rx="20" transform="rotate(-180 87 100)" fill="#D9D9D9" fill-opacity="0.7"/>
<g id="Group">
<path id="Vector_2" d="M70.2031 71.3297V83.3956C70.2031 84.9955 69.591 86.5303 68.5016 87.6615C67.4122 88.7927 65.9346 89.4286 64.3939 89.4286H23.7292C22.1884 89.4286 20.7109 88.7927 19.6214 87.6615C18.532 86.5303 17.9199 84.9955 17.9199 83.3956V17.033C17.9199 15.4329 18.532 13.8984 19.6214 12.767C20.7109 11.6356 22.1884 11 23.7292 11H64.3939C65.9346 11 67.4122 11.6356 68.5016 12.767C69.591 13.8984 70.2031 15.4329 70.2031 17.033V29.0989" stroke="#000001" stroke-width="5" stroke-linecap="round" stroke-linejoin="round"/>
<path id="Vector_3" d="M52.7754 50.2143H93.4401" stroke="#000001" stroke-width="5" stroke-linecap="round" stroke-linejoin="round"/>
<path id="Vector_4" d="M81.8213 38.1483L93.4398 50.2143L81.8213 62.2802" stroke="#000001" stroke-width="5" stroke-linecap="round" stroke-linejoin="round"/>
</g>
</g>
</g>
</g>
<defs>
<clipPath id="clip0_656_10">
<rect width="112" height="100" fill="white"/>
</clipPath>
</defs>
</svg>
