<svg width="276" height="104" viewBox="0 0 276 104" fill="none" xmlns="http://www.w3.org/2000/svg">
<g id="phone-telephone--android-phone-mobile-device-smartphone-iphone">
<path id="Intersect" d="M36.1092 2.05466C35.5391 1.35601 34.556 1.15506 33.7447 1.54871C24.8062 5.8856 25.1797 6.64821 16.1936 12.1716C4.42821 19.4035 -1.33194 32.7824 2.53441 44.0083C5.38861 52.2955 8.49663 60.7165 12.505 68.8898C16.5133 77.0632 21.2686 84.6763 26.0735 92.0069C32.5823 101.937 46.6872 105.574 59.6085 100.699C69.4413 96.9892 69.7307 97.7916 78.6393 93.3823C79.4149 92.9984 79.8601 92.1509 79.7019 91.3001C77.8103 81.1279 72.4315 71.1849 68.4685 61.8486C68.2482 61.3294 67.6387 61.0932 67.1236 61.3229C59.8556 64.5641 61.8477 63.2035 54.2288 66.6823C45.7902 57.529 41.8286 49.3041 39.7957 37.2518C47.224 33.3507 44.9383 34.0873 51.9681 30.3163C52.4644 30.05 52.6511 29.4247 52.3757 28.9334C47.3748 20.0131 42.6484 10.0675 36.1092 2.05466Z" fill="#D7E0FF" stroke="#4147D5" stroke-width="1.5" stroke-linejoin="round"/>
</g>
</svg>
