<svg width="128" height="150" viewBox="0 0 128 150" fill="none" xmlns="http://www.w3.org/2000/svg">
<path d="M93.7835 3.94595C87.9888 8.7027 87.1438 18.3153 86.5402 21.7838L68.4318 24.7568L97.4052 48.5405L101.027 33.6757C105.252 33.1802 116.962 32.4865 122.757 27.7297C128.552 22.973 126.379 18.8108 122.757 15.8378L108.27 3.94595C104.649 0.972973 99.5782 -0.810811 93.7835 3.94595Z" fill="#D7E0FF"/>
<path d="M93.7835 3.94595C87.9888 8.7027 87.1438 18.3153 86.5402 21.7838L68.4318 24.7568L97.4052 48.5405L101.027 33.6757C105.252 33.1802 116.962 32.4865 122.757 27.7297C128.552 22.973 126.379 18.8108 122.757 15.8378L108.27 3.94595C104.649 0.972973 99.5782 -0.810811 93.7835 3.94595Z" stroke="#4147D5" stroke-width="1.5" stroke-linecap="round" stroke-linejoin="round"/>
<path d="M82.9194 36.6487L63.0002 53" stroke="#D7E0FF" stroke-width="1.5" stroke-linecap="round" stroke-linejoin="round"/>
</svg>
