<svg width="65" height="81" viewBox="0 0 65 81" fill="none" xmlns="http://www.w3.org/2000/svg">
<g id="211817_search_strong_icon 2">
<path id="Vector" d="M43.7354 47.1445C45.6396 43.4109 46.7568 38.9813 46.7568 34.2193C46.7568 20.9145 38.1113 10.125 27.4473 10.125C16.7705 10.125 8.125 20.9145 8.125 34.2193C8.125 47.5242 16.7705 58.3137 27.4346 58.3137C31.3066 58.3137 34.9121 56.8898 37.9336 54.4535L38.8096 53.6941L52.5967 70.875L56.875 65.4486L43.1006 48.2678L43.7354 47.1445ZM38.2637 20.7562C41.1455 24.3475 42.7324 29.1252 42.7324 34.2035C42.7324 39.2818 41.1455 44.0596 38.2637 47.6508C35.3818 51.242 31.5478 53.2195 27.4727 53.2195C23.3975 53.2195 19.5635 51.242 16.6816 47.6508C13.7998 44.0596 12.2129 39.2818 12.2129 34.2035C12.2129 29.1252 13.7998 24.3475 16.6816 20.7562C19.5635 17.165 23.3975 15.1875 27.4727 15.1875C31.5478 15.1875 35.3818 17.165 38.2637 20.7562Z" fill="black"/>
</g>
</svg>
