<svg width="101" height="89" viewBox="0 0 101 89" fill="none" xmlns="http://www.w3.org/2000/svg">
<ellipse cx="50.5" cy="44.5" rx="49.5" ry="43.5" fill="#D7E0FF" stroke="#4147D5" stroke-width="1.5"/>
<path d="M23.0545 53.1066C29.1356 53.1066 32.5562 50.1006 32.5562 44.7566C32.5562 39.4126 29.1356 36.4066 23.0545 36.4066C16.9734 36.4066 13.5527 39.4126 13.5527 44.7566C13.5527 50.1006 16.9734 53.1066 23.0545 53.1066Z" fill="#4147D5"/>
<path d="M49.9788 53.1066C56.0599 53.1066 59.4805 50.1006 59.4805 44.7566C59.4805 39.4126 56.0599 36.4066 49.9788 36.4066C43.8977 36.4066 40.4771 39.4126 40.4771 44.7566C40.4771 50.1006 43.8977 53.1066 49.9788 53.1066Z" fill="#4147D5"/>
<path d="M76.9007 53.1066C82.9818 53.1066 86.4024 50.1006 86.4024 44.7566C86.4024 39.4126 82.9818 36.4066 76.9007 36.4066C70.8196 36.4066 67.3989 39.4126 67.3989 44.7566C67.3989 50.1006 70.8196 53.1066 76.9007 53.1066Z" fill="#4147D5"/>
</svg>
